<svg xmlns="http://www.w3.org/2000/svg" xmlns:xlink="http://www.w3.org/1999/xlink"><symbol id="icon-counseling24"><mask id="a" fill="#fff"><path d="M43.35 42.755c-7.085 0-12.849 5.764-12.849 12.848 0 6.475 4.804 10.342 12.849 10.342s12.848-3.866 12.848-10.342c0-7.084-5.764-12.848-12.848-12.848zm0 20.055c-3.628 0-9.715-.936-9.715-7.207 0-5.357 4.358-9.715 9.715-9.715 5.356 0 9.715 4.358 9.715 9.715 0 6.271-6.087 7.207-9.715 7.207zm-6.268-32.59c-3.202 0-5.327 3.96-5.327 6.58a5.333 5.333 0 005.327 5.328 5.333 5.333 0 005.328-5.327c0-2.62-2.125-6.581-5.328-6.581zm0 8.774A2.196 2.196 0 0134.89 36.8c0-1.482 1.25-3.447 2.193-3.447.944 0 2.194 1.965 2.194 3.447 0 1.21-.984 2.194-2.194 2.194zm12.535-8.774c-3.202 0-5.327 3.96-5.327 6.58a5.333 5.333 0 005.327 5.328 5.333 5.333 0 005.328-5.327c0-2.62-2.125-6.581-5.328-6.581zm0 8.774a2.196 2.196 0 01-2.193-2.194c0-1.482 1.25-3.447 2.193-3.447.943 0 2.194 1.965 2.194 3.447 0 1.21-.984 2.194-2.194 2.194zm10.028-1.254c-3.203 0-5.327 3.962-5.327 6.582a5.333 5.333 0 005.327 5.327 5.333 5.333 0 005.327-5.327c0-2.62-2.124-6.581-5.327-6.581zm0 8.775a2.196 2.196 0 01-2.194-2.194c0-1.482 1.251-3.447 2.194-3.447.943 0 2.194 1.965 2.194 3.447 0 1.21-.984 2.194-2.194 2.194zM27.054 37.74c-3.202 0-5.327 3.962-5.327 6.582a5.333 5.333 0 005.327 5.327 5.333 5.333 0 005.328-5.327c0-2.62-2.125-6.581-5.328-6.581zm0 8.775a2.196 2.196 0 01-2.193-2.194c0-1.482 1.25-3.447 2.193-3.447.944 0 2.194 1.965 2.194 3.447 0 1.21-.984 2.194-2.194 2.194z"/><path d="M46.693 52.783h-1.776v-1.776a1.567 1.567 0 10-3.134 0v1.776h-1.776a1.567 1.567 0 100 3.133h1.776v1.776a1.567 1.567 0 103.134 0v-1.776h1.776a1.567 1.567 0 100-3.133z"/><path d="M62.197 3.268A47.623 47.623 0 0047.528.972c-12.695 0-24.63 4.944-33.608 13.92C4.944 23.87 0 35.806 0 48.5c0 12.695 4.944 24.63 13.92 33.608 8.978 8.977 20.913 13.92 33.608 13.92a1.567 1.567 0 100-3.133c-11.858 0-23.006-4.618-31.391-13.003C7.752 71.507 3.134 60.358 3.134 48.5s4.618-23.006 13.003-31.392C24.522 8.723 35.67 4.106 47.528 4.106c4.692 0 9.302.721 13.705 2.144a1.581 1.581 0 001.973-1.009 1.582 1.582 0 00-1.01-1.973z"/><path d="M106.612 43.927l-5.502-6.289a1.583 1.583 0 00-2.211-.147l-4.383 3.834a47.533 47.533 0 00-13.38-26.433 47.661 47.661 0 00-11.538-8.51 1.581 1.581 0 00-2.115.657 1.582 1.582 0 00.657 2.116 44.546 44.546 0 0110.78 7.953c7.486 7.486 11.923 16.992 12.83 27.488.108 1.252 1.645 1.874 2.593 1.044l5.439-4.76 3.439 3.931L91.03 55.48c-.972.85-2.467.85-3.439 0L75.4 44.81l3.439-3.93 5 4.375c1.057.925 2.752.03 2.588-1.362C84.108 24.188 67.385 9.328 47.528 9.328c-21.6 0-39.171 17.573-39.171 39.172 0 21.6 17.572 39.171 39.171 39.171a1.567 1.567 0 100-3.133C27.657 84.538 11.49 68.37 11.49 48.5c0-19.872 16.167-36.038 36.038-36.038 16.792 0 31.149 11.551 35.016 27.497l-2.82-2.468a1.583 1.583 0 00-2.211.147l-5.503 6.29a1.567 1.567 0 00.147 2.21l13.371 11.7c2.139 1.87 5.428 1.87 7.566 0l13.371-11.7c.651-.57.717-1.56.147-2.21z"/><path d="M73.433 90.387h-11.63C66.983 86.532 75 79.362 75 71.898c0-5.471-4.452-9.923-9.924-9.923-5.472 0-9.923 4.452-9.923 9.923a1.567 1.567 0 103.133 0 6.797 6.797 0 016.79-6.79 6.797 6.797 0 016.79 6.79c0 9.023-15.794 18.617-15.953 18.712a1.582 1.582 0 00-.687 1.818 1.582 1.582 0 001.493 1.093h16.713a1.567 1.567 0 000-3.134zm25.07-6.685h-3.447v-20.16c0-.642-.407-1.234-1.006-1.464a1.582 1.582 0 00-1.802.508L75.534 84.313c-.777 1.011-.031 2.522 1.242 2.522h15.147v5.119a1.567 1.567 0 103.133 0v-5.118h3.447a1.566 1.566 0 100-3.134zm-6.58 0H79.957L91.923 68.15v15.553z"/></mask><path d="M43.35 42.755c-7.085 0-12.849 5.764-12.849 12.848 0 6.475 4.804 10.342 12.849 10.342s12.848-3.866 12.848-10.342c0-7.084-5.764-12.848-12.848-12.848zm0 20.055c-3.628 0-9.715-.936-9.715-7.207 0-5.357 4.358-9.715 9.715-9.715 5.356 0 9.715 4.358 9.715 9.715 0 6.271-6.087 7.207-9.715 7.207zm-6.268-32.59c-3.202 0-5.327 3.96-5.327 6.58a5.333 5.333 0 005.327 5.328 5.333 5.333 0 005.328-5.327c0-2.62-2.125-6.581-5.328-6.581zm0 8.774A2.196 2.196 0 0134.89 36.8c0-1.482 1.25-3.447 2.193-3.447.944 0 2.194 1.965 2.194 3.447 0 1.21-.984 2.194-2.194 2.194zm12.535-8.774c-3.202 0-5.327 3.96-5.327 6.58a5.333 5.333 0 005.327 5.328 5.333 5.333 0 005.328-5.327c0-2.62-2.125-6.581-5.328-6.581zm0 8.774a2.196 2.196 0 01-2.193-2.194c0-1.482 1.25-3.447 2.193-3.447.943 0 2.194 1.965 2.194 3.447 0 1.21-.984 2.194-2.194 2.194zm10.028-1.254c-3.203 0-5.327 3.962-5.327 6.582a5.333 5.333 0 005.327 5.327 5.333 5.333 0 005.327-5.327c0-2.62-2.124-6.581-5.327-6.581zm0 8.775a2.196 2.196 0 01-2.194-2.194c0-1.482 1.251-3.447 2.194-3.447.943 0 2.194 1.965 2.194 3.447 0 1.21-.984 2.194-2.194 2.194zM27.054 37.74c-3.202 0-5.327 3.962-5.327 6.582a5.333 5.333 0 005.327 5.327 5.333 5.333 0 005.328-5.327c0-2.62-2.125-6.581-5.328-6.581zm0 8.775a2.196 2.196 0 01-2.193-2.194c0-1.482 1.25-3.447 2.193-3.447.944 0 2.194 1.965 2.194 3.447 0 1.21-.984 2.194-2.194 2.194z" fill="#A07B50"/><path d="M46.693 52.783h-1.776v-1.776a1.567 1.567 0 10-3.134 0v1.776h-1.776a1.567 1.567 0 100 3.133h1.776v1.776a1.567 1.567 0 103.134 0v-1.776h1.776a1.567 1.567 0 100-3.133z" fill="#A07B50"/><path d="M62.197 3.268A47.623 47.623 0 0047.528.972c-12.695 0-24.63 4.944-33.608 13.92C4.944 23.87 0 35.806 0 48.5c0 12.695 4.944 24.63 13.92 33.608 8.978 8.977 20.913 13.92 33.608 13.92a1.567 1.567 0 100-3.133c-11.858 0-23.006-4.618-31.391-13.003C7.752 71.507 3.134 60.358 3.134 48.5s4.618-23.006 13.003-31.392C24.522 8.723 35.67 4.106 47.528 4.106c4.692 0 9.302.721 13.705 2.144a1.581 1.581 0 001.973-1.009 1.582 1.582 0 00-1.01-1.973z" fill="#A07B50"/><path d="M106.612 43.927l-5.502-6.289a1.583 1.583 0 00-2.211-.147l-4.383 3.834a47.533 47.533 0 00-13.38-26.433 47.661 47.661 0 00-11.538-8.51 1.581 1.581 0 00-2.115.657 1.582 1.582 0 00.657 2.116 44.546 44.546 0 0110.78 7.953c7.486 7.486 11.923 16.992 12.83 27.488.108 1.252 1.645 1.874 2.593 1.044l5.439-4.76 3.439 3.931L91.03 55.48c-.972.85-2.467.85-3.439 0L75.4 44.81l3.439-3.93 5 4.375c1.057.925 2.752.03 2.588-1.362C84.108 24.188 67.385 9.328 47.528 9.328c-21.6 0-39.171 17.573-39.171 39.172 0 21.6 17.572 39.171 39.171 39.171a1.567 1.567 0 100-3.133C27.657 84.538 11.49 68.37 11.49 48.5c0-19.872 16.167-36.038 36.038-36.038 16.792 0 31.149 11.551 35.016 27.497l-2.82-2.468a1.583 1.583 0 00-2.211.147l-5.503 6.29a1.567 1.567 0 00.147 2.21l13.371 11.7c2.139 1.87 5.428 1.87 7.566 0l13.371-11.7c.651-.57.717-1.56.147-2.21z" fill="#A07B50"/><path d="M73.433 90.387h-11.63C66.983 86.532 75 79.362 75 71.898c0-5.471-4.452-9.923-9.924-9.923-5.472 0-9.923 4.452-9.923 9.923a1.567 1.567 0 103.133 0 6.797 6.797 0 016.79-6.79 6.797 6.797 0 016.79 6.79c0 9.023-15.794 18.617-15.953 18.712a1.582 1.582 0 00-.687 1.818 1.582 1.582 0 001.493 1.093h16.713a1.567 1.567 0 000-3.134zm25.07-6.685h-3.447v-20.16c0-.642-.407-1.234-1.006-1.464a1.582 1.582 0 00-1.802.508L75.534 84.313c-.777 1.011-.031 2.522 1.242 2.522h15.147v5.119a1.567 1.567 0 103.133 0v-5.118h3.447a1.566 1.566 0 100-3.134zm-6.58 0H79.957L91.923 68.15v15.553z" fill="#A07B50"/><path d="M43.35 42.755c-7.085 0-12.849 5.764-12.849 12.848 0 6.475 4.804 10.342 12.849 10.342s12.848-3.866 12.848-10.342c0-7.084-5.764-12.848-12.848-12.848zm0 20.055c-3.628 0-9.715-.936-9.715-7.207 0-5.357 4.358-9.715 9.715-9.715 5.356 0 9.715 4.358 9.715 9.715 0 6.271-6.087 7.207-9.715 7.207zm-6.268-32.59c-3.202 0-5.327 3.96-5.327 6.58a5.333 5.333 0 005.327 5.328 5.333 5.333 0 005.328-5.327c0-2.62-2.125-6.581-5.328-6.581zm0 8.774A2.196 2.196 0 0134.89 36.8c0-1.482 1.25-3.447 2.193-3.447.944 0 2.194 1.965 2.194 3.447 0 1.21-.984 2.194-2.194 2.194zm12.535-8.774c-3.202 0-5.327 3.96-5.327 6.58a5.333 5.333 0 005.327 5.328 5.333 5.333 0 005.328-5.327c0-2.62-2.125-6.581-5.328-6.581zm0 8.774a2.196 2.196 0 01-2.193-2.194c0-1.482 1.25-3.447 2.193-3.447.943 0 2.194 1.965 2.194 3.447 0 1.21-.984 2.194-2.194 2.194zm10.028-1.254c-3.203 0-5.327 3.962-5.327 6.582a5.333 5.333 0 005.327 5.327 5.333 5.333 0 005.327-5.327c0-2.62-2.124-6.581-5.327-6.581zm0 8.775a2.196 2.196 0 01-2.194-2.194c0-1.482 1.251-3.447 2.194-3.447.943 0 2.194 1.965 2.194 3.447 0 1.21-.984 2.194-2.194 2.194zM27.054 37.74c-3.202 0-5.327 3.962-5.327 6.582a5.333 5.333 0 005.327 5.327 5.333 5.333 0 005.328-5.327c0-2.62-2.125-6.581-5.328-6.581zm0 8.775a2.196 2.196 0 01-2.193-2.194c0-1.482 1.25-3.447 2.193-3.447.944 0 2.194 1.965 2.194 3.447 0 1.21-.984 2.194-2.194 2.194z" stroke="#1F1C1D" stroke-width="2" mask="url(#a)"/><path d="M46.693 52.783h-1.776v-1.776a1.567 1.567 0 10-3.134 0v1.776h-1.776a1.567 1.567 0 100 3.133h1.776v1.776a1.567 1.567 0 103.134 0v-1.776h1.776a1.567 1.567 0 100-3.133z" stroke="#1F1C1D" stroke-width="2" mask="url(#a)"/><path d="M62.197 3.268A47.623 47.623 0 0047.528.972c-12.695 0-24.63 4.944-33.608 13.92C4.944 23.87 0 35.806 0 48.5c0 12.695 4.944 24.63 13.92 33.608 8.978 8.977 20.913 13.92 33.608 13.92a1.567 1.567 0 100-3.133c-11.858 0-23.006-4.618-31.391-13.003C7.752 71.507 3.134 60.358 3.134 48.5s4.618-23.006 13.003-31.392C24.522 8.723 35.67 4.106 47.528 4.106c4.692 0 9.302.721 13.705 2.144a1.581 1.581 0 001.973-1.009 1.582 1.582 0 00-1.01-1.973z" stroke="#1F1C1D" stroke-width="2" mask="url(#a)"/><path d="M106.612 43.927l-5.502-6.289a1.583 1.583 0 00-2.211-.147l-4.383 3.834a47.533 47.533 0 00-13.38-26.433 47.661 47.661 0 00-11.538-8.51 1.581 1.581 0 00-2.115.657 1.582 1.582 0 00.657 2.116 44.546 44.546 0 0110.78 7.953c7.486 7.486 11.923 16.992 12.83 27.488.108 1.252 1.645 1.874 2.593 1.044l5.439-4.76 3.439 3.931L91.03 55.48c-.972.85-2.467.85-3.439 0L75.4 44.81l3.439-3.93 5 4.375c1.057.925 2.752.03 2.588-1.362C84.108 24.188 67.385 9.328 47.528 9.328c-21.6 0-39.171 17.573-39.171 39.172 0 21.6 17.572 39.171 39.171 39.171a1.567 1.567 0 100-3.133C27.657 84.538 11.49 68.37 11.49 48.5c0-19.872 16.167-36.038 36.038-36.038 16.792 0 31.149 11.551 35.016 27.497l-2.82-2.468a1.583 1.583 0 00-2.211.147l-5.503 6.29a1.567 1.567 0 00.147 2.21l13.371 11.7c2.139 1.87 5.428 1.87 7.566 0l13.371-11.7c.651-.57.717-1.56.147-2.21z" stroke="#1F1C1D" stroke-width="2" mask="url(#a)"/><path d="M73.433 90.387h-11.63C66.983 86.532 75 79.362 75 71.898c0-5.471-4.452-9.923-9.924-9.923-5.472 0-9.923 4.452-9.923 9.923a1.567 1.567 0 103.133 0 6.797 6.797 0 016.79-6.79 6.797 6.797 0 016.79 6.79c0 9.023-15.794 18.617-15.953 18.712a1.582 1.582 0 00-.687 1.818 1.582 1.582 0 001.493 1.093h16.713a1.567 1.567 0 000-3.134zm25.07-6.685h-3.447v-20.16c0-.642-.407-1.234-1.006-1.464a1.582 1.582 0 00-1.802.508L75.534 84.313c-.777 1.011-.031 2.522 1.242 2.522h15.147v5.119a1.567 1.567 0 103.133 0v-5.118h3.447a1.566 1.566 0 100-3.134zm-6.58 0H79.957L91.923 68.15v15.553z" stroke="#1F1C1D" stroke-width="2" mask="url(#a)"/></symbol><symbol id="icon-crown"><path d="M41.84 22H7a.792.792 0 01-.75-.534L1.044 6.299a.791.791 0 01.874-1.037.79.79 0 01.677.47c.644 1.46 2.934 6.173 5.606 6.173.033 0 .067-.001.1-.003 1.612-.071 4.133-1.929 6.989-10.365a.792.792 0 011.5 0c.975 2.877 4.243 10.321 7.636 10.321h.027c1.61-.02 4.083-1.823 6.732-10.303A.792.792 0 0131.941 1h.007c.35.004.656.235.753.57.81 2.784 3.681 10.076 7.203 10.38 2.058.17 4.34-2.155 6.593-6.748a.791.791 0 011.46.603l-5.368 15.66a.792.792 0 01-.75.535zM7.565 20.419h33.709l3.102-9.05c-1.5 1.584-3.022 2.29-4.61 2.157-3.9-.338-6.577-5.951-7.822-9.25-2.198 6.127-4.652 9.13-7.473 9.162l-.046.001c-3.942 0-6.985-6.034-8.364-9.363-2.352 6.198-4.877 9.28-7.69 9.406-1.442.055-2.698-.662-3.78-1.727l2.974 8.664z" fill="#A07B50" stroke="#151313" stroke-width=".8"/></symbol><symbol id="icon-fb" viewBox="0 0 6 12">
<path d="M1.09903 2.72854C1.09903 3.00311 1.09903 4.22865 1.09903 4.22865H0V6.06299H1.09903V11.514H3.35667V6.06314H4.87165C4.87165 6.06314 5.01353 5.18359 5.08231 4.22189C4.88513 4.22189 3.36521 4.22189 3.36521 4.22189C3.36521 4.22189 3.36521 3.15472 3.36521 2.96767C3.36521 2.78022 3.61136 2.52806 3.85465 2.52806C4.09748 2.52806 4.60999 2.52806 5.08469 2.52806C5.08469 2.27831 5.08469 1.41538 5.08469 0.618408C4.45099 0.618408 3.73004 0.618408 3.41225 0.618408C1.04322 0.618282 1.09903 2.45445 1.09903 2.72854Z"/>
</symbol><symbol id="icon-food-selection"><mask id="a" fill="#fff"><path d="M70.438 33.067l-6.565-14.91V1.585C63.873.43 62.627-.35 61.6.168l-5.998 3.027L49.604.168a1.556 1.556 0 00-1.405 0L42.2 3.195 36.203.168a1.556 1.556 0 00-1.405 0l-5.999 3.027L22.801.168a1.556 1.556 0 00-1.404 0l-5.999 3.027L9.4.168C8.374-.351 7.127.429 7.127 1.585v16.572L.562 33.067a1.602 1.602 0 00-.135.644v72.704c0 .875.703 1.585 1.57 1.585h67.006c.868 0 1.57-.71 1.57-1.585V33.711c0-.222-.045-.44-.135-.644zM10.268 4.15l4.428 2.235c.442.223.963.223 1.405 0l5.998-3.027 5.998 3.027c.442.223.963.223 1.405 0L35.5 3.358l5.998 3.027c.442.223.963.223 1.405 0l5.998-3.027 5.998 3.027c.442.223.963.223 1.405 0l4.428-2.235v12.758H10.268V4.15zm-6.7 76.797H38.3l6.412 5.178-6.413 5.178H3.569V80.947zm40.308-45.651H54.03v69.534H3.568V94.474H38.85c.357 0 .703-.123.981-.348l8.376-6.763c.774-.625.774-1.85 0-2.475l-8.376-6.764a1.563 1.563 0 00-.98-.347H3.567V35.296h32.979c.867 0 1.57-.71 1.57-1.585 0-.876-.703-1.586-1.57-1.586H4.414l5.305-12.047h50.167l-5.304 12.047H43.876c-.868 0-1.57.71-1.57 1.586 0 .875.702 1.585 1.57 1.585zm23.557 69.534h-10.26V34.047l5.13-11.65 5.13 11.65v70.783z"/><path d="M28.8 50.724c-7.101 0-12.878 5.831-12.878 12.998 0 6.55 4.814 10.462 12.877 10.462 8.064 0 12.878-3.911 12.878-10.462 0-7.167-5.777-12.998-12.878-12.998zm0 20.29c-3.637 0-9.737-.948-9.737-7.292 0-5.42 4.368-9.828 9.736-9.828 5.37 0 9.737 4.409 9.737 9.828 0 6.345-6.1 7.292-9.737 7.292zm-6.282-32.971c-3.21 0-5.34 4.007-5.34 6.658 0 2.972 2.395 5.39 5.34 5.39 2.944 0 5.34-2.418 5.34-5.39 0-2.65-2.13-6.658-5.34-6.658zm0 8.877a2.211 2.211 0 01-2.2-2.22c0-1.498 1.254-3.487 2.2-3.487.945 0 2.198 1.988 2.198 3.488 0 1.223-.986 2.219-2.198 2.219zm12.563-8.877c-3.21 0-5.34 4.007-5.34 6.658 0 2.972 2.396 5.39 5.34 5.39s5.34-2.418 5.34-5.39c0-2.65-2.13-6.658-5.34-6.658zm0 8.877a2.211 2.211 0 01-2.199-2.22c0-1.498 1.254-3.487 2.2-3.487.944 0 2.198 1.988 2.198 3.488a2.212 2.212 0 01-2.199 2.219zm10.051-1.268c-3.21 0-5.34 4.007-5.34 6.657 0 2.972 2.396 5.39 5.34 5.39s5.34-2.418 5.34-5.39c0-2.65-2.13-6.657-5.34-6.657zm0 8.877a2.212 2.212 0 01-2.199-2.22c0-1.5 1.254-3.487 2.199-3.487.945 0 2.199 1.988 2.199 3.487 0 1.224-.987 2.22-2.199 2.22zm-32.665-8.877c-3.21 0-5.34 4.007-5.34 6.657 0 2.972 2.395 5.39 5.34 5.39 2.944 0 5.34-2.418 5.34-5.39 0-2.65-2.13-6.657-5.34-6.657zm0 8.877a2.212 2.212 0 01-2.199-2.22c0-1.5 1.253-3.487 2.199-3.487.945 0 2.198 1.988 2.198 3.487 0 1.224-.986 2.22-2.198 2.22zm2.931 43.538h-6.7c-.868 0-1.57.71-1.57 1.585s.702 1.585 1.57 1.585h6.7c.868 0 1.57-.71 1.57-1.585 0-.876-.702-1.585-1.57-1.585zm21.777 0H22.1c-.867 0-1.57.71-1.57 1.585s.703 1.585 1.57 1.585h15.076c.868 0 1.57-.71 1.57-1.585 0-.876-.702-1.585-1.57-1.585zM20.424 84.54H8.698c-.868 0-1.57.71-1.57 1.585 0 .876.702 1.586 1.57 1.586h11.726c.867 0 1.57-.71 1.57-1.585 0-.876-.703-1.586-1.57-1.586zm15.076 0h-8.376c-.867 0-1.57.71-1.57 1.585 0 .876.703 1.586 1.57 1.586H35.5c.867 0 1.57-.71 1.57-1.585 0-.876-.702-1.586-1.57-1.586z"/></mask><path d="M70.438 33.067l-6.565-14.91V1.585C63.873.43 62.627-.35 61.6.168l-5.998 3.027L49.604.168a1.556 1.556 0 00-1.405 0L42.2 3.195 36.203.168a1.556 1.556 0 00-1.405 0l-5.999 3.027L22.801.168a1.556 1.556 0 00-1.404 0l-5.999 3.027L9.4.168C8.374-.351 7.127.429 7.127 1.585v16.572L.562 33.067a1.602 1.602 0 00-.135.644v72.704c0 .875.703 1.585 1.57 1.585h67.006c.868 0 1.57-.71 1.57-1.585V33.711c0-.222-.045-.44-.135-.644zM10.268 4.15l4.428 2.235c.442.223.963.223 1.405 0l5.998-3.027 5.998 3.027c.442.223.963.223 1.405 0L35.5 3.358l5.998 3.027c.442.223.963.223 1.405 0l5.998-3.027 5.998 3.027c.442.223.963.223 1.405 0l4.428-2.235v12.758H10.268V4.15zm-6.7 76.797H38.3l6.412 5.178-6.413 5.178H3.569V80.947zm40.308-45.651H54.03v69.534H3.568V94.474H38.85c.357 0 .703-.123.981-.348l8.376-6.763c.774-.625.774-1.85 0-2.475l-8.376-6.764a1.563 1.563 0 00-.98-.347H3.567V35.296h32.979c.867 0 1.57-.71 1.57-1.585 0-.876-.703-1.586-1.57-1.586H4.414l5.305-12.047h50.167l-5.304 12.047H43.876c-.868 0-1.57.71-1.57 1.586 0 .875.702 1.585 1.57 1.585zm23.557 69.534h-10.26V34.047l5.13-11.65 5.13 11.65v70.783z" fill="#A07B50"/><path d="M28.8 50.724c-7.101 0-12.878 5.831-12.878 12.998 0 6.55 4.814 10.462 12.877 10.462 8.064 0 12.878-3.911 12.878-10.462 0-7.167-5.777-12.998-12.878-12.998zm0 20.29c-3.637 0-9.737-.948-9.737-7.292 0-5.42 4.368-9.828 9.736-9.828 5.37 0 9.737 4.409 9.737 9.828 0 6.345-6.1 7.292-9.737 7.292zm-6.282-32.971c-3.21 0-5.34 4.007-5.34 6.658 0 2.972 2.395 5.39 5.34 5.39 2.944 0 5.34-2.418 5.34-5.39 0-2.65-2.13-6.658-5.34-6.658zm0 8.877a2.211 2.211 0 01-2.2-2.22c0-1.498 1.254-3.487 2.2-3.487.945 0 2.198 1.988 2.198 3.488 0 1.223-.986 2.219-2.198 2.219zm12.563-8.877c-3.21 0-5.34 4.007-5.34 6.658 0 2.972 2.396 5.39 5.34 5.39s5.34-2.418 5.34-5.39c0-2.65-2.13-6.658-5.34-6.658zm0 8.877a2.211 2.211 0 01-2.199-2.22c0-1.498 1.254-3.487 2.2-3.487.944 0 2.198 1.988 2.198 3.488a2.212 2.212 0 01-2.199 2.219zm10.051-1.268c-3.21 0-5.34 4.007-5.34 6.657 0 2.972 2.396 5.39 5.34 5.39s5.34-2.418 5.34-5.39c0-2.65-2.13-6.657-5.34-6.657zm0 8.877a2.212 2.212 0 01-2.199-2.22c0-1.5 1.254-3.487 2.199-3.487.945 0 2.199 1.988 2.199 3.487 0 1.224-.987 2.22-2.199 2.22zm-32.665-8.877c-3.21 0-5.34 4.007-5.34 6.657 0 2.972 2.395 5.39 5.34 5.39 2.944 0 5.34-2.418 5.34-5.39 0-2.65-2.13-6.657-5.34-6.657zm0 8.877a2.212 2.212 0 01-2.199-2.22c0-1.5 1.253-3.487 2.199-3.487.945 0 2.198 1.988 2.198 3.487 0 1.224-.986 2.22-2.198 2.22zm2.931 43.538h-6.7c-.868 0-1.57.71-1.57 1.585s.702 1.585 1.57 1.585h6.7c.868 0 1.57-.71 1.57-1.585 0-.876-.702-1.585-1.57-1.585zm21.777 0H22.1c-.867 0-1.57.71-1.57 1.585s.703 1.585 1.57 1.585h15.076c.868 0 1.57-.71 1.57-1.585 0-.876-.702-1.585-1.57-1.585zM20.424 84.54H8.698c-.868 0-1.57.71-1.57 1.585 0 .876.702 1.586 1.57 1.586h11.726c.867 0 1.57-.71 1.57-1.585 0-.876-.703-1.586-1.57-1.586zm15.076 0h-8.376c-.867 0-1.57.71-1.57 1.585 0 .876.703 1.586 1.57 1.586H35.5c.867 0 1.57-.71 1.57-1.585 0-.876-.702-1.586-1.57-1.586z" fill="#A07B50"/><path d="M70.438 33.067l-6.565-14.91V1.585C63.873.43 62.627-.35 61.6.168l-5.998 3.027L49.604.168a1.556 1.556 0 00-1.405 0L42.2 3.195 36.203.168a1.556 1.556 0 00-1.405 0l-5.999 3.027L22.801.168a1.556 1.556 0 00-1.404 0l-5.999 3.027L9.4.168C8.374-.351 7.127.429 7.127 1.585v16.572L.562 33.067a1.602 1.602 0 00-.135.644v72.704c0 .875.703 1.585 1.57 1.585h67.006c.868 0 1.57-.71 1.57-1.585V33.711c0-.222-.045-.44-.135-.644zM10.268 4.15l4.428 2.235c.442.223.963.223 1.405 0l5.998-3.027 5.998 3.027c.442.223.963.223 1.405 0L35.5 3.358l5.998 3.027c.442.223.963.223 1.405 0l5.998-3.027 5.998 3.027c.442.223.963.223 1.405 0l4.428-2.235v12.758H10.268V4.15zm-6.7 76.797H38.3l6.412 5.178-6.413 5.178H3.569V80.947zm40.308-45.651H54.03v69.534H3.568V94.474H38.85c.357 0 .703-.123.981-.348l8.376-6.763c.774-.625.774-1.85 0-2.475l-8.376-6.764a1.563 1.563 0 00-.98-.347H3.567V35.296h32.979c.867 0 1.57-.71 1.57-1.585 0-.876-.703-1.586-1.57-1.586H4.414l5.305-12.047h50.167l-5.304 12.047H43.876c-.868 0-1.57.71-1.57 1.586 0 .875.702 1.585 1.57 1.585zm23.557 69.534h-10.26V34.047l5.13-11.65 5.13 11.65v70.783z" stroke="#1F1C1D" stroke-width="2" mask="url(#a)"/><path d="M28.8 50.724c-7.101 0-12.878 5.831-12.878 12.998 0 6.55 4.814 10.462 12.877 10.462 8.064 0 12.878-3.911 12.878-10.462 0-7.167-5.777-12.998-12.878-12.998zm0 20.29c-3.637 0-9.737-.948-9.737-7.292 0-5.42 4.368-9.828 9.736-9.828 5.37 0 9.737 4.409 9.737 9.828 0 6.345-6.1 7.292-9.737 7.292zm-6.282-32.971c-3.21 0-5.34 4.007-5.34 6.658 0 2.972 2.395 5.39 5.34 5.39 2.944 0 5.34-2.418 5.34-5.39 0-2.65-2.13-6.658-5.34-6.658zm0 8.877a2.211 2.211 0 01-2.2-2.22c0-1.498 1.254-3.487 2.2-3.487.945 0 2.198 1.988 2.198 3.488 0 1.223-.986 2.219-2.198 2.219zm12.563-8.877c-3.21 0-5.34 4.007-5.34 6.658 0 2.972 2.396 5.39 5.34 5.39s5.34-2.418 5.34-5.39c0-2.65-2.13-6.658-5.34-6.658zm0 8.877a2.211 2.211 0 01-2.199-2.22c0-1.498 1.254-3.487 2.2-3.487.944 0 2.198 1.988 2.198 3.488a2.212 2.212 0 01-2.199 2.219zm10.051-1.268c-3.21 0-5.34 4.007-5.34 6.657 0 2.972 2.396 5.39 5.34 5.39s5.34-2.418 5.34-5.39c0-2.65-2.13-6.657-5.34-6.657zm0 8.877a2.212 2.212 0 01-2.199-2.22c0-1.5 1.254-3.487 2.199-3.487.945 0 2.199 1.988 2.199 3.487 0 1.224-.987 2.22-2.199 2.22zm-32.665-8.877c-3.21 0-5.34 4.007-5.34 6.657 0 2.972 2.395 5.39 5.34 5.39 2.944 0 5.34-2.418 5.34-5.39 0-2.65-2.13-6.657-5.34-6.657zm0 8.877a2.212 2.212 0 01-2.199-2.22c0-1.5 1.253-3.487 2.199-3.487.945 0 2.198 1.988 2.198 3.487 0 1.224-.986 2.22-2.198 2.22zm2.931 43.538h-6.7c-.868 0-1.57.71-1.57 1.585s.702 1.585 1.57 1.585h6.7c.868 0 1.57-.71 1.57-1.585 0-.876-.702-1.585-1.57-1.585zm21.777 0H22.1c-.867 0-1.57.71-1.57 1.585s.703 1.585 1.57 1.585h15.076c.868 0 1.57-.71 1.57-1.585 0-.876-.702-1.585-1.57-1.585zM20.424 84.54H8.698c-.868 0-1.57.71-1.57 1.585 0 .876.702 1.586 1.57 1.586h11.726c.867 0 1.57-.71 1.57-1.585 0-.876-.703-1.586-1.57-1.586zm15.076 0h-8.376c-.867 0-1.57.71-1.57 1.585 0 .876.703 1.586 1.57 1.586H35.5c.867 0 1.57-.71 1.57-1.585 0-.876-.702-1.586-1.57-1.586z" stroke="#1F1C1D" stroke-width="2" mask="url(#a)"/></symbol><symbol id="icon-free-vet"><mask id="a" fill="#fff"><path d="M13.903 23.452C6.571 23.452.607 29.417.607 36.748c0 6.8 5.132 12.421 11.726 13.2V60.2a1.57 1.57 0 003.14 0V49.95c6.595-.78 11.727-6.4 11.727-13.2 0-7.332-5.965-13.297-13.297-13.297zm0 23.452c-5.6 0-10.155-4.556-10.155-10.156 0-5.6 4.555-10.155 10.155-10.155S24.06 31.149 24.06 36.748c0 5.6-4.556 10.156-10.156 10.156z"/><path d="M13.903 30.153a6.604 6.604 0 00-6.596 6.596 6.604 6.604 0 006.596 6.596 6.604 6.604 0 006.596-6.596 6.604 6.604 0 00-6.596-6.596zm0 10.05a3.459 3.459 0 01-3.455-3.454 3.459 3.459 0 013.455-3.455 3.459 3.459 0 013.455 3.455 3.459 3.459 0 01-3.455 3.455zm82.92-2.513h-.942V10.785c0-4.56-3.71-8.271-8.271-8.271h-3.455V1.57A1.57 1.57 0 0082.585 0h-4.189a4.088 4.088 0 00-4.083 4.083 4.088 4.088 0 004.083 4.083h4.188a1.57 1.57 0 001.57-1.57v-.943h3.456a5.136 5.136 0 015.13 5.13V37.69h-.942a1.57 1.57 0 00-1.571 1.571v2.513c0 6.985-5.683 12.668-12.668 12.668H57.457c-6.985 0-12.668-5.683-12.668-12.668V39.26a1.57 1.57 0 00-1.57-1.57h-.943V10.784a5.136 5.136 0 015.13-5.13h3.455v.942c0 .867.703 1.57 1.57 1.57h4.188a4.088 4.088 0 004.084-4.083A4.088 4.088 0 0056.618 0H52.43a1.57 1.57 0 00-1.57 1.57v.943h-3.455c-4.56 0-8.27 3.71-8.27 8.27v26.908h-.943a1.57 1.57 0 00-1.57 1.57v2.513c0 11.488 9.346 20.835 20.834 20.835h5.968v7.642c0 .868.703 1.57 1.57 1.57h.942v8.481c0 12.99-10.567 23.557-23.556 23.557h-3.35c-12.99 0-23.557-10.567-23.557-23.557V67.808a1.57 1.57 0 00-3.141 0v12.494C12.333 95.023 24.309 107 39.03 107h3.35c14.721 0 26.698-11.977 26.698-26.698v-8.48h.942a1.57 1.57 0 001.57-1.57v-7.643h5.968c11.488 0 20.835-9.347 20.835-20.835V39.26c0-.867-.704-1.57-1.571-1.57zM81.013 5.026h-2.617a.943.943 0 010-1.884h2.618v1.884zm-27.01-1.885h2.617a.943.943 0 010 1.884h-2.617V3.141zm41.25 38.633c0 9.756-7.937 17.694-17.693 17.694h-7.54a1.57 1.57 0 00-1.57 1.57v7.643h-1.885v-7.643a1.57 1.57 0 00-1.57-1.57h-7.539c-9.756 0-17.694-7.938-17.694-17.694v-.942h1.885v.942c0 8.717 7.092 15.81 15.81 15.81h20.101c8.718 0 15.81-7.093 15.81-15.81v-.942h1.884v.942z"/><path d="M67.508 25.127c-7.1 0-12.878 5.777-12.878 12.878 0 6.49 4.814 10.365 12.878 10.365s12.877-3.875 12.877-10.365c0-7.1-5.776-12.878-12.877-12.878zm0 20.102c-3.636 0-9.737-.939-9.737-7.224 0-5.369 4.368-9.737 9.737-9.737s9.737 4.368 9.737 9.737c0 6.285-6.1 7.224-9.737 7.224zm-6.282-32.665c-3.21 0-5.34 3.97-5.34 6.596a5.345 5.345 0 005.34 5.34 5.345 5.345 0 005.34-5.34c0-2.626-2.13-6.596-5.34-6.596zm0 8.794a2.201 2.201 0 01-2.199-2.198c0-1.486 1.254-3.455 2.2-3.455.944 0 2.198 1.97 2.198 3.455a2.202 2.202 0 01-2.199 2.198zm12.564-8.794c-3.21 0-5.34 3.97-5.34 6.596a5.345 5.345 0 005.34 5.34 5.345 5.345 0 005.34-5.34c0-2.626-2.13-6.596-5.34-6.596zm0 8.794a2.201 2.201 0 01-2.2-2.198c0-1.486 1.254-3.455 2.2-3.455.945 0 2.198 1.97 2.198 3.455a2.201 2.201 0 01-2.198 2.198zm10.05-1.256c-3.21 0-5.339 3.97-5.339 6.596a5.345 5.345 0 005.34 5.34 5.345 5.345 0 005.34-5.34c0-2.626-2.13-6.596-5.34-6.596zm0 8.794a2.201 2.201 0 01-2.198-2.198c0-1.486 1.253-3.455 2.199-3.455.945 0 2.198 1.97 2.198 3.455a2.201 2.201 0 01-2.198 2.198zm-32.665-8.794c-3.21 0-5.34 3.97-5.34 6.596a5.345 5.345 0 005.34 5.34 5.345 5.345 0 005.34-5.34c0-2.626-2.13-6.596-5.34-6.596zm0 8.794a2.201 2.201 0 01-2.198-2.198c0-1.486 1.253-3.455 2.198-3.455.946 0 2.199 1.97 2.199 3.455a2.201 2.201 0 01-2.199 2.198z"/></mask><path d="M13.903 23.452C6.571 23.452.607 29.417.607 36.748c0 6.8 5.132 12.421 11.726 13.2V60.2a1.57 1.57 0 003.14 0V49.95c6.595-.78 11.727-6.4 11.727-13.2 0-7.332-5.965-13.297-13.297-13.297zm0 23.452c-5.6 0-10.155-4.556-10.155-10.156 0-5.6 4.555-10.155 10.155-10.155S24.06 31.149 24.06 36.748c0 5.6-4.556 10.156-10.156 10.156z" fill="#fff"/><path d="M13.903 30.153a6.604 6.604 0 00-6.596 6.596 6.604 6.604 0 006.596 6.596 6.604 6.604 0 006.596-6.596 6.604 6.604 0 00-6.596-6.596zm0 10.05a3.459 3.459 0 01-3.455-3.454 3.459 3.459 0 013.455-3.455 3.459 3.459 0 013.455 3.455 3.459 3.459 0 01-3.455 3.455zm82.92-2.513h-.942V10.785c0-4.56-3.71-8.271-8.271-8.271h-3.455V1.57A1.57 1.57 0 0082.585 0h-4.189a4.088 4.088 0 00-4.083 4.083 4.088 4.088 0 004.083 4.083h4.188a1.57 1.57 0 001.57-1.57v-.943h3.456a5.136 5.136 0 015.13 5.13V37.69h-.942a1.57 1.57 0 00-1.571 1.571v2.513c0 6.985-5.683 12.668-12.668 12.668H57.457c-6.985 0-12.668-5.683-12.668-12.668V39.26a1.57 1.57 0 00-1.57-1.57h-.943V10.784a5.136 5.136 0 015.13-5.13h3.455v.942c0 .867.703 1.57 1.57 1.57h4.188a4.088 4.088 0 004.084-4.083A4.088 4.088 0 0056.618 0H52.43a1.57 1.57 0 00-1.57 1.57v.943h-3.455c-4.56 0-8.27 3.71-8.27 8.27v26.908h-.943a1.57 1.57 0 00-1.57 1.57v2.513c0 11.488 9.346 20.835 20.834 20.835h5.968v7.642c0 .868.703 1.57 1.57 1.57h.942v8.481c0 12.99-10.567 23.557-23.556 23.557h-3.35c-12.99 0-23.557-10.567-23.557-23.557V67.808a1.57 1.57 0 00-3.141 0v12.494C12.333 95.023 24.309 107 39.03 107h3.35c14.721 0 26.698-11.977 26.698-26.698v-8.48h.942a1.57 1.57 0 001.57-1.57v-7.643h5.968c11.488 0 20.835-9.347 20.835-20.835V39.26c0-.867-.704-1.57-1.571-1.57zM81.013 5.026h-2.617a.943.943 0 010-1.884h2.618v1.884zm-27.01-1.885h2.617a.943.943 0 010 1.884h-2.617V3.141zm41.25 38.633c0 9.756-7.937 17.694-17.693 17.694h-7.54a1.57 1.57 0 00-1.57 1.57v7.643h-1.885v-7.643a1.57 1.57 0 00-1.57-1.57h-7.539c-9.756 0-17.694-7.938-17.694-17.694v-.942h1.885v.942c0 8.717 7.092 15.81 15.81 15.81h20.101c8.718 0 15.81-7.093 15.81-15.81v-.942h1.884v.942z" fill="#fff"/><path d="M67.508 25.127c-7.1 0-12.878 5.777-12.878 12.878 0 6.49 4.814 10.365 12.878 10.365s12.877-3.875 12.877-10.365c0-7.1-5.776-12.878-12.877-12.878zm0 20.102c-3.636 0-9.737-.939-9.737-7.224 0-5.369 4.368-9.737 9.737-9.737s9.737 4.368 9.737 9.737c0 6.285-6.1 7.224-9.737 7.224zm-6.282-32.665c-3.21 0-5.34 3.97-5.34 6.596a5.345 5.345 0 005.34 5.34 5.345 5.345 0 005.34-5.34c0-2.626-2.13-6.596-5.34-6.596zm0 8.794a2.201 2.201 0 01-2.199-2.198c0-1.486 1.254-3.455 2.2-3.455.944 0 2.198 1.97 2.198 3.455a2.202 2.202 0 01-2.199 2.198zm12.564-8.794c-3.21 0-5.34 3.97-5.34 6.596a5.345 5.345 0 005.34 5.34 5.345 5.345 0 005.34-5.34c0-2.626-2.13-6.596-5.34-6.596zm0 8.794a2.201 2.201 0 01-2.2-2.198c0-1.486 1.254-3.455 2.2-3.455.945 0 2.198 1.97 2.198 3.455a2.201 2.201 0 01-2.198 2.198zm10.05-1.256c-3.21 0-5.339 3.97-5.339 6.596a5.345 5.345 0 005.34 5.34 5.345 5.345 0 005.34-5.34c0-2.626-2.13-6.596-5.34-6.596zm0 8.794a2.201 2.201 0 01-2.198-2.198c0-1.486 1.253-3.455 2.199-3.455.945 0 2.198 1.97 2.198 3.455a2.201 2.201 0 01-2.198 2.198zm-32.665-8.794c-3.21 0-5.34 3.97-5.34 6.596a5.345 5.345 0 005.34 5.34 5.345 5.345 0 005.34-5.34c0-2.626-2.13-6.596-5.34-6.596zm0 8.794a2.201 2.201 0 01-2.198-2.198c0-1.486 1.253-3.455 2.198-3.455.946 0 2.199 1.97 2.199 3.455a2.201 2.201 0 01-2.199 2.198z" fill="#fff"/><path d="M13.903 23.452C6.571 23.452.607 29.417.607 36.748c0 6.8 5.132 12.421 11.726 13.2V60.2a1.57 1.57 0 003.14 0V49.95c6.595-.78 11.727-6.4 11.727-13.2 0-7.332-5.965-13.297-13.297-13.297zm0 23.452c-5.6 0-10.155-4.556-10.155-10.156 0-5.6 4.555-10.155 10.155-10.155S24.06 31.149 24.06 36.748c0 5.6-4.556 10.156-10.156 10.156z" stroke="#A07B50" stroke-width="2" mask="url(#a)"/><path d="M13.903 30.153a6.604 6.604 0 00-6.596 6.596 6.604 6.604 0 006.596 6.596 6.604 6.604 0 006.596-6.596 6.604 6.604 0 00-6.596-6.596zm0 10.05a3.459 3.459 0 01-3.455-3.454 3.459 3.459 0 013.455-3.455 3.459 3.459 0 013.455 3.455 3.459 3.459 0 01-3.455 3.455zm82.92-2.513h-.942V10.785c0-4.56-3.71-8.271-8.271-8.271h-3.455V1.57A1.57 1.57 0 0082.585 0h-4.189a4.088 4.088 0 00-4.083 4.083 4.088 4.088 0 004.083 4.083h4.188a1.57 1.57 0 001.57-1.57v-.943h3.456a5.136 5.136 0 015.13 5.13V37.69h-.942a1.57 1.57 0 00-1.571 1.571v2.513c0 6.985-5.683 12.668-12.668 12.668H57.457c-6.985 0-12.668-5.683-12.668-12.668V39.26a1.57 1.57 0 00-1.57-1.57h-.943V10.784a5.136 5.136 0 015.13-5.13h3.455v.942c0 .867.703 1.57 1.57 1.57h4.188a4.088 4.088 0 004.084-4.083A4.088 4.088 0 0056.618 0H52.43a1.57 1.57 0 00-1.57 1.57v.943h-3.455c-4.56 0-8.27 3.71-8.27 8.27v26.908h-.943a1.57 1.57 0 00-1.57 1.57v2.513c0 11.488 9.346 20.835 20.834 20.835h5.968v7.642c0 .868.703 1.57 1.57 1.57h.942v8.481c0 12.99-10.567 23.557-23.556 23.557h-3.35c-12.99 0-23.557-10.567-23.557-23.557V67.808a1.57 1.57 0 00-3.141 0v12.494C12.333 95.023 24.309 107 39.03 107h3.35c14.721 0 26.698-11.977 26.698-26.698v-8.48h.942a1.57 1.57 0 001.57-1.57v-7.643h5.968c11.488 0 20.835-9.347 20.835-20.835V39.26c0-.867-.704-1.57-1.571-1.57zM81.013 5.026h-2.617a.943.943 0 010-1.884h2.618v1.884zm-27.01-1.885h2.617a.943.943 0 010 1.884h-2.617V3.141zm41.25 38.633c0 9.756-7.937 17.694-17.693 17.694h-7.54a1.57 1.57 0 00-1.57 1.57v7.643h-1.885v-7.643a1.57 1.57 0 00-1.57-1.57h-7.539c-9.756 0-17.694-7.938-17.694-17.694v-.942h1.885v.942c0 8.717 7.092 15.81 15.81 15.81h20.101c8.718 0 15.81-7.093 15.81-15.81v-.942h1.884v.942z" stroke="#A07B50" stroke-width="2" mask="url(#a)"/><path d="M67.508 25.127c-7.1 0-12.878 5.777-12.878 12.878 0 6.49 4.814 10.365 12.878 10.365s12.877-3.875 12.877-10.365c0-7.1-5.776-12.878-12.877-12.878zm0 20.102c-3.636 0-9.737-.939-9.737-7.224 0-5.369 4.368-9.737 9.737-9.737s9.737 4.368 9.737 9.737c0 6.285-6.1 7.224-9.737 7.224zm-6.282-32.665c-3.21 0-5.34 3.97-5.34 6.596a5.345 5.345 0 005.34 5.34 5.345 5.345 0 005.34-5.34c0-2.626-2.13-6.596-5.34-6.596zm0 8.794a2.201 2.201 0 01-2.199-2.198c0-1.486 1.254-3.455 2.2-3.455.944 0 2.198 1.97 2.198 3.455a2.202 2.202 0 01-2.199 2.198zm12.564-8.794c-3.21 0-5.34 3.97-5.34 6.596a5.345 5.345 0 005.34 5.34 5.345 5.345 0 005.34-5.34c0-2.626-2.13-6.596-5.34-6.596zm0 8.794a2.201 2.201 0 01-2.2-2.198c0-1.486 1.254-3.455 2.2-3.455.945 0 2.198 1.97 2.198 3.455a2.201 2.201 0 01-2.198 2.198zm10.05-1.256c-3.21 0-5.339 3.97-5.339 6.596a5.345 5.345 0 005.34 5.34 5.345 5.345 0 005.34-5.34c0-2.626-2.13-6.596-5.34-6.596zm0 8.794a2.201 2.201 0 01-2.198-2.198c0-1.486 1.253-3.455 2.199-3.455.945 0 2.198 1.97 2.198 3.455a2.201 2.201 0 01-2.198 2.198zm-32.665-8.794c-3.21 0-5.34 3.97-5.34 6.596a5.345 5.345 0 005.34 5.34 5.345 5.345 0 005.34-5.34c0-2.626-2.13-6.596-5.34-6.596zm0 8.794a2.201 2.201 0 01-2.198-2.198c0-1.486 1.253-3.455 2.198-3.455.946 0 2.199 1.97 2.199 3.455a2.201 2.201 0 01-2.199 2.198z" stroke="#A07B50" stroke-width="2" mask="url(#a)"/></symbol><symbol id="icon-tw" viewBox="0 0 16 11">
<path d="M13.3758 4.62011C14.2231 4.55022 14.7977 4.16506 15.0189 3.64245C14.7133 3.83019 13.7646 4.03487 13.2407 3.83994C13.215 3.71684 13.1863 3.59991 13.1581 3.49434C12.7589 2.02841 11.392 0.847405 9.9598 0.990077C10.0757 0.943291 10.1932 0.899732 10.3104 0.860627C10.468 0.804161 11.393 0.653668 11.2473 0.327185C11.1246 0.040017 9.99448 0.544209 9.7817 0.610109C10.0626 0.504473 10.5271 0.322766 10.5769 0C10.1466 0.0590258 9.72411 0.262477 9.3977 0.558308C9.51554 0.431453 9.60494 0.276857 9.62391 0.110476C8.47615 0.843722 7.80569 2.322 7.26309 3.75598C6.83704 3.34308 6.45942 3.01793 6.12066 2.83738C5.17032 2.32775 4.03403 1.79603 2.25031 1.13387C2.19557 1.72402 2.54218 2.50872 3.54095 3.03055C3.32456 3.00159 2.92885 3.06622 2.61236 3.14201C2.74125 3.81809 3.16218 4.3751 4.30173 4.64445C3.78095 4.67882 3.51181 4.79733 3.26789 5.05276C3.50508 5.52297 4.08387 6.07637 5.12504 5.96277C3.96746 6.4617 4.65305 7.38567 5.59497 7.24787C3.98812 8.90757 1.45474 8.78559 0 7.39742C3.79824 12.573 12.0547 10.4583 13.2852 5.47317C14.207 5.48102 14.749 5.15384 15.085 4.79312C14.5539 4.88326 13.784 4.79011 13.3758 4.62011Z"/>
</symbol><symbol id="icon-vk" viewBox="0 0 13 8">
<path d="M12.8841 7.1355C12.8492 7.0724 12.633 6.56585 11.593 5.52472C10.5041 4.43452 10.6504 4.61154 11.9619 2.72647C12.7606 1.57842 13.08 0.877323 12.98 0.577604C12.8849 0.291906 12.2975 0.367274 12.2975 0.367274L10.3441 0.379543C10.3441 0.379543 10.1994 0.35851 10.0914 0.427744C9.98654 0.496101 9.9191 0.653848 9.9191 0.653848C9.9191 0.653848 9.60951 1.54249 9.19673 2.29792C8.32648 3.89204 7.97789 3.97617 7.83569 3.87714C7.50498 3.64666 7.58786 2.94994 7.58786 2.45567C7.58786 0.910625 7.80482 0.266491 7.16452 0.0999807C6.95163 0.0447692 6.79562 0.00796159 6.25202 0.00182698C5.55484 -0.00606037 4.96411 0.0044561 4.63015 0.180607C4.40751 0.298041 4.23605 0.560076 4.34088 0.574975C4.47007 0.593378 4.76259 0.659983 4.91779 0.887839C5.11849 1.18142 5.11118 1.84221 5.11118 1.84221C5.11118 1.84221 5.22657 3.66068 4.84222 3.88678C4.57814 4.0419 4.21655 3.72553 3.44056 2.27864C3.04322 1.53811 2.74257 0.7187 2.74257 0.7187C2.74257 0.7187 2.68488 0.566211 2.58168 0.484708C2.45655 0.385678 2.28104 0.354129 2.28104 0.354129L0.423525 0.366398C0.423525 0.366398 0.144817 0.375162 0.0424345 0.505741C-0.0485722 0.622299 0.0351215 0.862424 0.0351215 0.862424C0.0351215 0.862424 1.4896 4.53179 3.13585 6.38182C4.6464 8.0776 6.3609 7.9663 6.3609 7.9663H7.13771C7.13771 7.9663 7.37254 7.93825 7.49198 7.79891C7.60249 7.67096 7.59843 7.43083 7.59843 7.43083C7.59843 7.43083 7.58299 6.30645 8.06727 6.14081C8.54425 5.97781 9.15692 7.22752 9.80615 7.70864C10.2969 8.07234 10.6699 7.99259 10.6699 7.99259L12.4063 7.9663C12.4063 7.9663 13.3148 7.90583 12.8841 7.1355Z"/>
</symbol></svg>